<svg width="764" height="258" viewBox="0 0 764 258" fill="none" xmlns="http://www.w3.org/2000/svg">
<path d="M22.58 234.5L0.570023 234.51C0.530626 234.51 0.491613 234.502 0.455215 234.487C0.418818 234.472 0.385745 234.45 0.357887 234.422C0.33003 234.394 0.307938 234.361 0.292862 234.325C0.277786 234.288 0.27002 234.249 0.27002 234.21V1.06001C0.27002 0.980444 0.301626 0.904138 0.357887 0.847878C0.414148 0.791617 0.490458 0.76001 0.570023 0.76001H740.83C740.91 0.76001 740.986 0.791617 741.042 0.847878C741.098 0.904138 741.13 0.980444 741.13 1.06001V23.07C741.13 23.1496 741.162 23.2259 741.218 23.2821C741.274 23.3384 741.35 23.37 741.43 23.37L763.43 23.36C763.51 23.36 763.586 23.3916 763.642 23.4479C763.698 23.5041 763.73 23.5804 763.73 23.66V256.78C763.73 256.86 763.698 256.936 763.642 256.992C763.586 257.048 763.51 257.08 763.43 257.08H23.17C23.0905 257.08 23.0142 257.048 22.9579 256.992C22.9016 256.936 22.87 256.86 22.87 256.78L22.88 234.8C22.88 234.72 22.8484 234.644 22.7922 234.588C22.7359 234.532 22.6596 234.5 22.58 234.5ZM22.88 23.67C22.88 23.5878 22.9127 23.5089 22.9708 23.4508C23.029 23.3927 23.1078 23.36 23.19 23.36H735.18C735.262 23.36 735.341 23.3273 735.399 23.2692C735.457 23.2111 735.49 23.1322 735.49 23.05L735.5 6.77001C735.5 6.68779 735.467 6.60894 735.409 6.55081C735.351 6.49267 735.272 6.46001 735.19 6.46001H6.28002C6.23931 6.46001 6.199 6.46803 6.16139 6.48361C6.12378 6.49919 6.08961 6.52202 6.06082 6.55081C6.03204 6.57959 6.0092 6.61377 5.99362 6.65138C5.97804 6.68899 5.97002 6.7293 5.97002 6.77001L5.98003 228.52C5.98003 228.602 6.01268 228.681 6.07082 228.739C6.12895 228.797 6.20781 228.83 6.29002 228.83L22.57 228.85C22.6522 228.85 22.7311 228.817 22.7892 228.759C22.8474 228.701 22.88 228.622 22.88 228.54V23.67ZM735.49 29.26C735.49 29.1911 735.463 29.1249 735.414 29.0762C735.365 29.0274 735.299 29 735.23 29H28.77C28.7011 29 28.6349 29.0274 28.5862 29.0762C28.5374 29.1249 28.51 29.1911 28.51 29.26V228.58C28.51 228.649 28.5374 228.715 28.5862 228.764C28.6349 228.813 28.7011 228.84 28.77 228.84H735.23C735.299 228.84 735.365 228.813 735.414 228.764C735.463 228.715 735.49 228.649 735.49 228.58V29.26ZM741.13 234.17C741.13 234.213 741.121 234.256 741.105 234.296C741.088 234.336 741.064 234.373 741.033 234.403C741.003 234.434 740.966 234.458 740.926 234.475C740.886 234.491 740.843 234.5 740.8 234.5H28.84C28.7525 234.5 28.6686 234.535 28.6067 234.597C28.5448 234.659 28.51 234.742 28.51 234.83V251.15C28.51 251.238 28.5448 251.321 28.6067 251.383C28.6686 251.445 28.7525 251.48 28.84 251.48H757.72C757.807 251.48 757.891 251.445 757.953 251.383C758.015 251.321 758.05 251.238 758.05 251.15L758.04 29.33C758.04 29.2425 758.005 29.1585 757.943 29.0967C757.881 29.0348 757.798 29 757.71 29H741.45C741.362 29 741.279 29.0348 741.217 29.0967C741.155 29.1585 741.12 29.2425 741.12 29.33L741.13 234.17Z" fill="#3E8DE3"/>
<path d="M563.8 54.5H546.02C545.871 54.5 545.75 54.6209 545.75 54.77V72.49C545.75 72.6391 545.871 72.76 546.02 72.76H563.8C563.949 72.76 564.07 72.6391 564.07 72.49V54.77C564.07 54.6209 563.949 54.5 563.8 54.5Z" fill="#3E8DE3"/>
<path d="M592.02 91H601.97C602.297 91 602.5 91.16 602.58 91.48L606.88 108.74C606.967 109.087 606.833 109.26 606.48 109.26L592.04 109.25C591.915 109.25 591.796 109.3 591.708 109.388C591.62 109.476 591.57 109.595 591.57 109.72L591.58 161.15C591.58 161.243 591.543 161.332 591.478 161.398C591.412 161.463 591.323 161.5 591.23 161.5H573.76C573.42 161.5 573.25 161.33 573.25 160.99C573.23 138.063 573.253 115.15 573.32 92.25C573.37 71.42 588.65 55.06 609.69 54.7C609.97 54.7 610.11 54.84 610.11 55.12L610.13 72.24C610.13 72.4733 610.013 72.6067 609.78 72.64C599.12 73.9067 593.013 79.8133 591.46 90.36C591.4 90.7867 591.587 91 592.02 91Z" fill="#3E8DE3"/>
<path d="M137.98 94.25H147.68C147.98 94.25 148.167 94.3967 148.24 94.69L152.58 112.02C152.66 112.34 152.533 112.5 152.2 112.5H138C137.64 112.5 137.46 112.68 137.46 113.04C137.447 120.72 137.44 128.373 137.44 136C137.43 145.33 150.16 142.94 155.88 143.02C156.207 143.027 156.41 143.19 156.49 143.51L160.8 160.96C160.887 161.293 160.757 161.463 160.41 161.47C155.037 161.543 149.733 161.553 144.5 161.5C129.85 161.36 119.05 149.73 119.05 135.25C119.043 113.51 119.043 91.78 119.05 70.06C119.05 69.8998 119.105 69.7444 119.205 69.6192C119.305 69.4939 119.444 69.4061 119.6 69.37L137.03 65.11C137.08 65.0961 137.133 65.0945 137.185 65.1051C137.236 65.1157 137.284 65.1384 137.326 65.1713C137.368 65.2041 137.401 65.2464 137.425 65.2947C137.448 65.3431 137.46 65.3962 137.46 65.45V93.73C137.46 94.0767 137.633 94.25 137.98 94.25Z" fill="#3E8DE3"/>
<path d="M386.98 94.25H396.68C396.98 94.25 397.167 94.3967 397.24 94.69L401.59 111.98C401.683 112.327 401.547 112.5 401.18 112.5H387C386.647 112.5 386.47 112.68 386.47 113.04C386.45 119.873 386.443 126.69 386.45 133.49C386.46 140.11 388.21 142.94 394.94 142.98C398.247 143 401.557 143.007 404.87 143C405.23 143 405.453 143.173 405.54 143.52L409.83 160.96C409.917 161.3 409.783 161.47 409.43 161.47C397.22 161.62 385.01 163.46 375.53 153.97C370.377 148.817 367.823 142.327 367.87 134.5C368.01 112.967 368.1 91.42 368.14 69.86C368.14 69.7545 368.175 69.6522 368.238 69.569C368.302 69.4859 368.39 69.4265 368.49 69.4L385.97 65.12C386.029 65.1065 386.09 65.1063 386.148 65.1196C386.207 65.1329 386.262 65.1593 386.309 65.1968C386.356 65.2343 386.394 65.2819 386.42 65.3361C386.446 65.3904 386.46 65.4498 386.46 65.51V93.73C386.46 94.0767 386.633 94.25 386.98 94.25Z" fill="#3E8DE3"/>
<path d="M185.45 90.24C185.45 90.291 185.464 90.341 185.492 90.3842C185.519 90.4273 185.558 90.4619 185.604 90.4839C185.65 90.5059 185.701 90.5143 185.752 90.5083C185.802 90.5023 185.85 90.4821 185.89 90.45C192.043 85.5233 199.073 82.9633 206.98 82.77C207.3 82.7633 207.46 82.92 207.46 83.24L207.45 100.25C207.45 100.623 207.267 100.83 206.9 100.87C196.273 102.123 189.553 107.17 186.74 116.01C185.807 118.937 185.37 123.987 185.43 131.16C185.51 141.113 185.507 151.073 185.42 161.04C185.413 161.347 185.26 161.5 184.96 161.5H167.53C167.21 161.5 167.05 161.343 167.05 161.03V85.23C167.05 84.91 167.21 84.75 167.53 84.75H184.99C185.31 84.75 185.47 84.9133 185.47 85.24L185.45 90.24Z" fill="#3E8DE3"/>
<path d="M326.5 103.24C313.76 108.56 309.83 125.27 317.85 136.04C320.97 140.233 325.13 143.02 330.33 144.4C337.597 146.327 344.5 144.597 351.04 139.21C351.307 138.99 351.563 139.003 351.81 139.25L363.89 151.36C364.15 151.627 364.137 151.873 363.85 152.1C361.63 153.89 359.49 155.94 357.11 157.31C345.51 163.99 333.84 165.217 322.1 160.99C288.64 148.95 286.18 102.26 318.25 86.94C333.46 79.67 351.07 82.08 363.85 94.48C364.07 94.6933 364.07 94.91 363.85 95.13L351.66 107.16C351.42 107.393 351.173 107.403 350.92 107.19C343.44 100.877 335.3 99.56 326.5 103.24Z" fill="#3E8DE3"/>
<path d="M515.32 90.39C515.319 90.432 515.33 90.4732 515.352 90.5086C515.374 90.5441 515.407 90.5724 515.446 90.5902C515.485 90.6081 515.528 90.6147 515.571 90.6093C515.615 90.604 515.656 90.5869 515.69 90.56C521.823 85.56 528.86 82.9666 536.8 82.78C537.133 82.7733 537.3 82.9366 537.3 83.27V100.24C537.3 100.627 537.107 100.843 536.72 100.89C526.193 102.123 519.5 107.147 516.64 115.96C515.7 118.847 515.247 123.603 515.28 130.23C515.327 140.47 515.327 150.717 515.28 160.97C515.273 161.323 515.093 161.5 514.74 161.5L497.51 161.51C497.177 161.51 497.01 161.343 497.01 161.01L497 85.25C497 84.9166 497.167 84.75 497.5 84.75H514.78C514.918 84.75 515.05 84.8058 515.148 84.9052C515.245 85.0046 515.3 85.1394 515.3 85.28L515.32 90.39Z" fill="#3E8DE3"/>
<path d="M95.79 107.01C90.46 100.79 81.61 97.26 74.44 101.91C72.5867 103.11 71.8734 104.687 72.3 106.64C73.08 110.27 77.99 112.21 81.26 112.94C94.06 115.81 111.36 124.12 111.39 139.16C111.42 153.48 100.53 163.15 86.23 163.37C74.41 163.55 64.13 159.807 55.39 152.14C55.3362 152.092 55.2924 152.034 55.2615 151.97C55.2305 151.905 55.2131 151.836 55.2103 151.765C55.2075 151.695 55.2193 151.625 55.2451 151.56C55.2709 151.496 55.31 151.438 55.36 151.39L67.36 139.58C67.4116 139.53 67.4726 139.491 67.5394 139.465C67.6062 139.439 67.6775 139.427 67.7492 139.429C67.8209 139.43 67.8915 139.447 67.9569 139.476C68.0222 139.505 68.0811 139.548 68.13 139.6C73.7434 145.573 80.4434 147.653 88.23 145.84C92.67 144.8 94.78 140.05 90.95 136.81C87.28 133.72 83.11 133.46 79.39 132.21C71.54 129.56 63.72 126.07 58.26 119.73C51.83 112.27 53.11 100.21 58.65 92.78C70.05 77.5 97.34 81.54 108.85 94.33C108.94 94.4294 108.989 94.5598 108.985 94.694C108.981 94.8282 108.926 94.9558 108.83 95.05L96.78 107.04C96.7138 107.106 96.6348 107.158 96.5479 107.193C96.461 107.228 96.3682 107.244 96.2753 107.241C96.1823 107.238 96.0912 107.216 96.0077 107.177C95.9242 107.137 95.8501 107.08 95.79 107.01Z" fill="#3E8DE3"/>
<path d="M268.77 155.97C245.75 173.96 216.26 157.61 215.35 129.74C215.123 122.76 215.11 107.997 215.31 85.45C215.317 85.15 215.47 85 215.77 85H232.99C233.141 85 233.286 85.059 233.393 85.164C233.5 85.269 233.56 85.4115 233.56 85.56C233.587 99.0667 233.52 112.543 233.36 125.99C233.25 135.19 239.52 143.55 248.76 144.96C256.82 146.18 264.76 141.87 267.92 134.25C268.82 132.097 269.273 129.03 269.28 125.05C269.32 111.863 269.333 98.6767 269.32 85.49C269.32 85.1633 269.48 85 269.8 85H287.11C287.517 85 287.72 85.2033 287.72 85.61V161.02C287.72 161.34 287.557 161.5 287.23 161.5H269.77C269.45 161.5 269.293 161.34 269.3 161.02L269.33 156.25C269.337 155.77 269.15 155.677 268.77 155.97Z" fill="#3E8DE3"/>
<path d="M468.73 156.26C468.73 155.8 468.547 155.71 468.18 155.99C460.32 161.937 452.02 164.327 443.28 163.16C424.52 160.65 414.56 144.36 414.54 126.5C414.52 112.827 414.533 99.15 414.58 85.47C414.58 85.1567 414.733 85 415.04 85H432.24C432.673 85 432.89 85.2167 432.89 85.65C432.97 98.9767 432.943 112.257 432.81 125.49C432.69 136.98 441.33 146.65 453.11 145.03C462.21 143.78 468.69 136.3 468.71 127C468.737 113.193 468.737 99.3867 468.71 85.58C468.71 85.1933 468.903 85 469.29 85L486.58 85.01C486.694 85.01 486.803 85.0543 486.884 85.133C486.965 85.2118 487.01 85.3186 487.01 85.43V161C487.01 161.333 486.84 161.5 486.5 161.5H469.22C468.867 161.5 468.69 161.323 468.69 160.97L468.73 156.26Z" fill="#3E8DE3"/>
<path d="M563.8 85H546C545.856 85 545.74 85.1164 545.74 85.26V161.24C545.74 161.384 545.856 161.5 546 161.5H563.8C563.944 161.5 564.06 161.384 564.06 161.24V85.26C564.06 85.1164 563.944 85 563.8 85Z" fill="#3E8DE3"/>
<path d="M653.56 140.97L678.37 87.44C678.43 87.3087 678.527 87.1973 678.649 87.1193C678.771 87.0413 678.914 86.9998 679.06 87H698.03C698.517 87 698.657 87.2233 698.45 87.67C687.063 112.27 675.67 136.853 664.27 161.42C659.723 171.213 656.723 177.157 655.27 179.25C647.27 190.757 635.253 195.693 619.22 194.06C618.887 194.027 618.76 193.847 618.84 193.52L623.12 176.21C623.16 176.051 623.255 175.911 623.389 175.815C623.523 175.72 623.686 175.676 623.85 175.69C633.223 176.377 639.567 172.447 642.88 163.9C643.007 163.573 642.997 163.253 642.85 162.94L607.92 87.57C607.747 87.19 607.867 87 608.28 87H627.43C627.552 87.0004 627.673 87.0362 627.777 87.1035C627.881 87.1707 627.966 87.2665 628.02 87.38L652.82 140.97C653.067 141.497 653.313 141.497 653.56 140.97Z" fill="#3E8DE3"/>
</svg>
